<?xml version="1.0" ?><svg viewBox="0 0 64 64" xmlns="http://www.w3.org/2000/svg"><title/><g data-name="25" id="_25"><path d="M58.93,5.31a.65.65,0,0,0,0-.2A.76.76,0,0,0,59,5a1.85,1.85,0,0,0,0-.23s0-.06,0-.09,0,0,0,0a1.37,1.37,0,0,0-.13-.2.48.48,0,0,0-.09-.11s0,0,0,0a1,1,0,0,0-.17-.11l-.11-.07A1,1,0,0,0,58.06,4h0a1.19,1.19,0,0,0-.37.06s0,0,0,0l-13,5a1,1,0,0,0-.35,1.64l2,2A1,1,0,0,0,47,13v4a1,1,0,0,0,.62.92A.84.84,0,0,0,48,18a1,1,0,0,0,.71-.29L50,16.41l.29.3A1,1,0,0,0,51,17h.11a1,1,0,0,0,.73-.45l7-11a.26.26,0,0,0,0-.08A.39.39,0,0,0,58.93,5.31ZM46.79,10.38l5.55-2.13L48,11.76a1,1,0,0,0-.24-.47Zm4,4-.12-.12L49.5,13.08l4.43-3.54Z"/><path d="M42.54,16c-1,0-4.26-.46-8-.69a.64.64,0,0,0-.22-.32c-6.73-5.22-19.09-.77-24.94,3.71-1,.77,0,2.51,1,1.73a25.54,25.54,0,0,1,10.74-5,23.8,23.8,0,0,1,6.84-.25c-5,.23-9.17,1.34-8.47,4.64,1.07,5.07,11.11.5,14.21-2.64,2.95.22,5.91.66,8.87.79C43.82,18.07,43.82,16.07,42.54,16ZM29.19,18.15c-.9.62-5.12,2.27-6.46,1.68-2.64-1.17,6.72-2.7,7.59-2.71a.85.85,0,0,1,.16,0A7.75,7.75,0,0,1,29.19,18.15Z"/><path d="M61,31.76l-2-8A1,1,0,0,0,58,23H6a1,1,0,0,0-1,.76l-2,8a1,1,0,0,0,.18.86A1,1,0,0,0,4,33H7V56a1,1,0,0,0,1,1H56a1,1,0,0,0,1-1V33h3a1,1,0,0,0,.79-.38A1,1,0,0,0,61,31.76ZM6.78,25H44.72l-1.5,6H5.28ZM9,33H24V55H9ZM26,55V33h4v4a1,1,0,0,0,2,0V33H44a1,1,0,0,0,1-.76L46.78,25H47V55H32V45a1,1,0,0,0-2,0V55Zm29,0H49V25h.22L51,32.24A1,1,0,0,0,52,33h3ZM52.78,31l-1.5-6h5.94l1.5,6Z"/><path d="M31,43a1,1,0,0,0,1-1V40a1,1,0,0,0-2,0v2A1,1,0,0,0,31,43Z"/></g></svg>